# File created by Blade
# Date/Time:  Thu Sep 25 18:39:44 2014
# Frame Rate: 120.000 fps
#------------------------------------------------------
:FULLY-SPECIFIED
:DEGREES
1712
root -0.717794 33.026333 -3.131531 6.677798 2.428058 -2.099945
Spine -9.478065 -12.601901 4.869976
Head -21.261964 15.984369 3.272413
LeftShoulder 21.332496 3.284367 34.437439
LeftArm 137.327662 7.420598 -43.292662
LeftForeArm -12.129634 -0.000000 114.254468
LeftHand -14.317515 -0.000000 -43.106393
LeftHandThumb1 -26.253704 0.000000 33.147579
RightShoulder 1.120384 25.738694 -19.888586
RightArm 42.878676 -27.185049 92.413174
RightForeArm 9.227003 -0.000000 126.117133
RightHand 3.841601 0.000000 46.438535
RightHandThumb1 -24.326973 -0.000000 -32.862282
LeftUpLeg -1.396685 7.885919 2.433163
LeftLeg -0.711708 -0.000000 0.000000
LeftFoot -9.767265 1.522058 -9.572251
LeftToeBase 9.923216 -0.000000 -0.000000
RightUpLeg -2.834793 -4.945152 0.934890
RightLeg 2.243721 -0.000000 -0.000000
RightFoot -7.405026 -2.261486 0.764827
RightToeBase -0.538170 -0.000000 0.000000
1713
root -0.716731 33.026002 -3.131790 6.671842 2.417607 -2.103582
Spine -9.495401 -12.615960 4.893961
Head -21.075562 15.884736 3.277123
LeftShoulder 21.297676 3.166683 34.389326
LeftArm 137.210047 7.546560 -43.313292
LeftForeArm -12.047268 -0.000000 114.311588
LeftHand -14.394271 -0.000000 -43.087357
LeftHandThumb1 -26.253704 0.000000 33.147579
RightShoulder 1.147964 25.835977 -19.930379
RightArm 42.756586 -27.197147 92.481454
RightForeArm 9.178703 0.000000 126.138124
RightHand 3.716462 -0.000000 46.393359
RightHandThumb1 -24.326973 -0.000000 -32.862282
LeftUpLeg -1.391230 7.887242 2.433767
LeftLeg -0.708335 -0.000000 0.000000
LeftFoot -9.786688 1.541773 -9.533581
LeftToeBase 10.021645 -0.000000 -0.000000
RightUpLeg -2.830460 -4.937697 0.935702
RightLeg 2.243340 -0.000000 -0.000000
RightFoot -7.406076 -2.258726 0.763499
RightToeBase -0.512188 -0.000000 0.000000
1714
root -0.714909 33.025473 -3.132572 6.665554 2.407474 -2.100431
Spine -9.506170 -12.626063 4.900299
Head -20.887586 15.802180 3.298077
LeftShoulder 21.265989 3.066464 34.350082
LeftArm 137.125020 7.658114 -43.335638
LeftForeArm -12.078469 -0.000000 114.318333
LeftHand -14.435054 0.000000 -43.112699
LeftHandThumb1 -26.253704 0.000000 33.147579
RightShoulder 1.187650 25.902266 -19.936540
RightArm 42.658152 -27.177769 92.552207
RightForeArm 9.184169 -0.000000 126.149729
RightHand 3.848621 -0.000000 46.366876
RightHandThumb1 -24.326973 -0.000000 -32.862282
LeftUpLeg -1.384971 7.886981 2.429031
LeftLeg -0.707389 -0.000000 0.000000
LeftFoot -9.773300 1.525200 -9.594953
LeftToeBase 9.925210 -0.000000 -0.000000
RightUpLeg -2.824964 -4.940099 0.926922
RightLeg 2.243170 -0.000000 -0.000000
RightFoot -7.421357 -2.249322 0.761151
RightToeBase -0.492463 -0.000000 0.000000
1715
root -0.713986 33.025368 -3.133664 6.658417 2.395731 -2.107327
Spine -9.517808 -12.640813 4.922583
Head -20.693117 15.732713 3.295896
LeftShoulder 21.248638 2.935952 34.302196
LeftArm 137.004220 7.778106 -43.362842
LeftForeArm -12.123639 -0.000000 114.324548
LeftHand -14.446658 -0.000000 -43.098822
LeftHandThumb1 -26.253704 0.000000 33.147579
RightShoulder 1.229107 25.967781 -19.943521
RightArm 42.579527 -27.178275 92.613082
RightForeArm 9.155519 -0.000000 126.146441
RightHand 3.792531 -0.000000 46.393215
RightHandThumb1 -24.326973 -0.000000 -32.862282
LeftUpLeg -1.383736 7.895486 2.433022
LeftLeg -0.694502 -0.000000 0.000000
LeftFoot -9.804269 1.545608 -9.517564
LeftToeBase 10.022050 -0.000000 -0.000000
RightUpLeg -2.823319 -4.945169 0.931462
RightLeg 2.246597 -0.000000 -0.000000
RightFoot -7.408299 -2.232499 0.762615
RightToeBase -0.532511 -0.000000 0.000000
1716
root -0.712560 33.024697 -3.134482 6.646738 2.380318 -2.113084
Spine -9.516706 -12.643056 4.939757
Head -20.518355 15.659139 3.306180
LeftShoulder 21.223808 2.820707 34.258971
LeftArm 136.905226 7.874446 -43.380493
LeftForeArm -12.152051 -0.000000 114.332616
LeftHand -14.504086 -0.000000 -43.055441
LeftHandThumb1 -26.253704 0.000000 33.147579
RightShoulder 1.257546 26.026942 -19.956253
RightArm 42.504429 -27.168524 92.671106
RightForeArm 9.157826 -0.000000 126.149733
RightHand 3.812753 -0.000000 46.412137
RightHandThumb1 -24.326973 -0.000000 -32.862282
LeftUpLeg -1.374310 7.896270 2.436842
LeftLeg -0.687219 -0.000000 0.000000
LeftFoot -9.819144 1.553653 -9.537897
LeftToeBase 10.004889 -0.000000 -0.000000
RightUpLeg -2.813567 -4.946846 0.932195
RightLeg 2.243850 -0.000000 -0.000000
RightFoot -7.408618 -2.204810 0.787596
RightToeBase -0.528877 -0.000000 0.000000
